<svg xmlns="http://www.w3.org/2000/svg" width="720" height="480" viewBox="0 0 720 480"><defs><linearGradient id="g" x1="0" y1="0" x2="1" y2="1"><stop offset="0" stop-color="#fff7e6"/><stop offset=".52" stop-color="#9f6b3d"/><stop offset="1" stop-color="#26323a"/></linearGradient><linearGradient id="b" x1="0" y1="0" x2="0" y2="1"><stop offset="0" stop-color="#000" stop-opacity="0"/><stop offset="1" stop-color="#000" stop-opacity=".82"/></linearGradient><style>text{font-family:'Microsoft YaHei','Noto Sans CJK SC',Arial,sans-serif}.top{font-size:30px;font-weight:800;fill:white}.date{font-size:24px;font-weight:800;fill:#263044}.tag{font-size:18px;font-weight:800;fill:#3a3012}.title{font-size:58px;font-weight:900;fill:white;paint-order:stroke;stroke:#26323a;stroke-width:5px}.desc{font-size:20px;fill:white;paint-order:stroke;stroke:#26323a;stroke-width:3px}</style></defs><rect width="720" height="480" fill="url(#g)"/><path d="M0 270 C145 210 260 300 390 250 S610 225 720 280 V480 H0Z" fill="#203a43" opacity=".45"/><g opacity=".82"><rect x="115" y="170" width="120" height="90" fill="#6b442d"/><path d="M100 170 l75-70 75 70z" fill="#3f2d20"/><rect x="360" y="150" width="135" height="110" fill="#72482f"/><path d="M342 150 l85-78 85 78z" fill="#3f2d20"/></g><path d="M540 115 C595 92 640 118 670 150" stroke="#fff3bf" stroke-width="8" fill="none" opacity=".55"/><rect y="220" width="720" height="260" fill="url(#b)"/><text class="top" x="34" y="60">今日同心日历</text><rect x="500" y="26" width="186" height="44" rx="22" fill="rgba(255,255,255,.92)"/><text class="date" x="593" y="56" text-anchor="middle">农历十一月前后</text><line x1="36" y1="272" x2="144" y2="272" stroke="rgba(255,255,255,.75)" stroke-width="2"/><rect x="38" y="286" width="112" height="38" rx="19" fill="rgba(255,221,100,.9)"/><text class="tag" x="94" y="312" text-anchor="middle">侗族</text><text class="title" x="36" y="392">侗年</text><text class="desc" x="39" y="462">侗寨年味与大歌里的团圆。</text></svg>