<svg xmlns="http://www.w3.org/2000/svg" width="720" height="480" viewBox="0 0 720 480"><defs><linearGradient id="g" x1="0" y1="0" x2="1" y2="1"><stop offset="0" stop-color="#e8fff0"/><stop offset=".55" stop-color="#2f8f7b"/><stop offset="1" stop-color="#15364d"/></linearGradient><linearGradient id="b" x1="0" y1="0" x2="0" y2="1"><stop offset="0" stop-color="#000" stop-opacity="0"/><stop offset="1" stop-color="#000" stop-opacity=".82"/></linearGradient><style>text{font-family:'Microsoft YaHei','Noto Sans CJK SC',Arial,sans-serif}.top{font-size:30px;font-weight:800;fill:white}.date{font-size:24px;font-weight:800;fill:#263044}.tag{font-size:18px;font-weight:800;fill:#3a3012}.title{font-size:58px;font-weight:900;fill:white;paint-order:stroke;stroke:#15364d;stroke-width:5px}.desc{font-size:20px;fill:white;paint-order:stroke;stroke:#15364d;stroke-width:3px}</style></defs><rect width="720" height="480" fill="url(#g)"/><path d="M0 270 C120 230 210 305 325 260 S560 220 720 275 V480 H0Z" fill="#b7f0df" opacity=".45"/><path d="M110 205 C210 160 350 172 525 215 C420 256 250 265 110 205Z" fill="#8a4f2d" opacity=".86"/><path d="M145 195 C245 215 360 220 485 205" stroke="#ffd56a" stroke-width="10" opacity=".9"/><g fill="#fff7d0" opacity=".9"><ellipse cx="475" cy="130" rx="36" ry="18"/><ellipse cx="512" cy="158" rx="36" ry="18"/><ellipse cx="438" cy="160" rx="36" ry="18"/></g><rect y="220" width="720" height="260" fill="url(#b)"/><text class="top" x="34" y="60">今日同心日历</text><rect x="500" y="26" width="186" height="44" rx="22" fill="rgba(255,255,255,.92)"/><text class="date" x="593" y="56" text-anchor="middle">农历五月初五</text><line x1="36" y1="272" x2="144" y2="272" stroke="rgba(255,255,255,.75)" stroke-width="2"/><rect x="38" y="286" width="150" height="38" rx="19" fill="rgba(255,221,100,.9)"/><text class="tag" x="113" y="312" text-anchor="middle">共同文化主题</text><text class="title" x="36" y="392">端午</text><text class="desc" x="39" y="462">龙舟、粽叶与家国情怀里的共同节日。</text></svg>