<svg xmlns="http://www.w3.org/2000/svg" width="720" height="480" viewBox="0 0 720 480"><defs><linearGradient id="g" x1="0" y1="0" x2="1" y2="1"><stop offset="0" stop-color="#1a203d"/><stop offset=".55" stop-color="#4b1d2a"/><stop offset="1" stop-color="#100912"/></linearGradient><radialGradient id="fire" cx="50%" cy="58%" r="45%"><stop offset="0" stop-color="#ffd36b"/><stop offset=".38" stop-color="#ef5b2a"/><stop offset="1" stop-color="#55162e" stop-opacity="0"/></radialGradient><linearGradient id="b" x1="0" y1="0" x2="0" y2="1"><stop offset="0" stop-color="#000" stop-opacity="0"/><stop offset="1" stop-color="#000" stop-opacity=".82"/></linearGradient><style>text{font-family:'Microsoft YaHei','Noto Sans CJK SC',Arial,sans-serif}.top{font-size:30px;font-weight:800;fill:white}.date{font-size:24px;font-weight:800;fill:#263044}.tag{font-size:18px;font-weight:800;fill:#3a3012}.title{font-size:58px;font-weight:900;fill:white;paint-order:stroke;stroke:#140a12;stroke-width:5px}.desc{font-size:20px;fill:white;paint-order:stroke;stroke:#140a12;stroke-width:3px}</style></defs><rect width="720" height="480" fill="url(#g)"/><rect width="720" height="480" fill="url(#fire)"/><path d="M0 245 L90 150 L155 225 L235 118 L340 235 L430 130 L545 245 L630 155 L720 240 V480 H0Z" fill="#24304f" opacity=".82"/><g opacity=".9"><path d="M350 250 C320 205 345 160 377 118 C385 170 435 195 410 260Z" fill="#ffb23c"/><path d="M345 270 C305 235 312 190 335 160 C340 205 390 220 382 270Z" fill="#ff6b2a"/><path d="M375 278 C355 240 385 210 398 175 C412 220 455 230 438 280Z" fill="#ffe078"/></g><rect y="220" width="720" height="260" fill="url(#b)"/><text class="top" x="34" y="60">今日同心日历</text><rect x="500" y="26" width="186" height="44" rx="22" fill="rgba(255,255,255,.92)"/><text class="date" x="593" y="56" text-anchor="middle">农历六月二十四</text><line x1="36" y1="272" x2="144" y2="272" stroke="rgba(255,255,255,.75)" stroke-width="2"/><rect x="38" y="286" width="174" height="38" rx="19" fill="rgba(255,221,100,.9)"/><text class="tag" x="125" y="312" text-anchor="middle">彝族等西南民族</text><text class="title" x="36" y="392">火把节</text><text class="desc" x="39" y="462">火光照亮山乡，也点亮共同的节日记忆。</text></svg>