<svg xmlns="http://www.w3.org/2000/svg" width="720" height="480" viewBox="0 0 720 480"><defs><linearGradient id="g" x1="0" y1="0" x2="1" y2="1"><stop offset="0" stop-color="#fff7ed"/><stop offset=".55" stop-color="#c2410c"/><stop offset="1" stop-color="#3b1f1f"/></linearGradient><linearGradient id="b" x1="0" y1="0" x2="0" y2="1"><stop offset="0" stop-color="#000" stop-opacity="0"/><stop offset="1" stop-color="#000" stop-opacity=".82"/></linearGradient><style>text{font-family:'Microsoft YaHei','Noto Sans CJK SC',Arial,sans-serif}.top{font-size:30px;font-weight:800;fill:white}.date{font-size:24px;font-weight:800;fill:#263044}.tag{font-size:18px;font-weight:800;fill:#3a3012}.title{font-size:58px;font-weight:900;fill:white;paint-order:stroke;stroke:#3b1f1f;stroke-width:5px}.desc{font-size:20px;fill:white;paint-order:stroke;stroke:#3b1f1f;stroke-width:3px}</style></defs><rect width="720" height="480" fill="url(#g)"/><path d="M0 275 C130 220 245 315 370 260 S590 230 720 280 V480 H0Z" fill="#7f1d1d" opacity=".45"/><g fill="none" stroke="#fef3c7" stroke-width="8" opacity=".8"><path d="M135 210 h90"/><path d="M180 165 v90"/><path d="M520 175 l70 70"/><path d="M590 175 l-70 70"/></g><g fill="#f8fafc" opacity=".8"><circle cx="305" cy="150" r="16"/><circle cx="340" cy="180" r="16"/><circle cx="375" cy="150" r="16"/></g><rect y="220" width="720" height="260" fill="url(#b)"/><text class="top" x="34" y="60">今日同心日历</text><rect x="500" y="26" width="186" height="44" rx="22" fill="rgba(255,255,255,.92)"/><text class="date" x="593" y="56" text-anchor="middle">农历十月前后</text><line x1="36" y1="272" x2="144" y2="272" stroke="rgba(255,255,255,.75)" stroke-width="2"/><rect x="38" y="286" width="112" height="38" rx="19" fill="rgba(255,221,100,.9)"/><text class="tag" x="94" y="312" text-anchor="middle">苗族</text><text class="title" x="36" y="392">苗年</text><text class="desc" x="39" y="462">鼓声、银饰与团圆里的新年记忆。</text></svg>