<svg xmlns="http://www.w3.org/2000/svg" width="720" height="480" viewBox="0 0 720 480"><defs><linearGradient id="g" x1="0" y1="0" x2="1" y2="1"><stop offset="0" stop-color="#dff8ff"/><stop offset=".55" stop-color="#8ac46a"/><stop offset="1" stop-color="#244b35"/></linearGradient><linearGradient id="b" x1="0" y1="0" x2="0" y2="1"><stop offset="0" stop-color="#000" stop-opacity="0"/><stop offset="1" stop-color="#000" stop-opacity=".82"/></linearGradient><style>text{font-family:'Microsoft YaHei','Noto Sans CJK SC',Arial,sans-serif}.top{font-size:30px;font-weight:800;fill:white}.date{font-size:24px;font-weight:800;fill:#263044}.tag{font-size:18px;font-weight:800;fill:#3a3012}.title{font-size:58px;font-weight:900;fill:white;paint-order:stroke;stroke:#244b35;stroke-width:5px}.desc{font-size:20px;fill:white;paint-order:stroke;stroke:#244b35;stroke-width:3px}</style></defs><rect width="720" height="480" fill="url(#g)"/><path d="M0 285 C160 230 275 300 420 255 S625 245 720 285 V480 H0Z" fill="#cde98d" opacity=".62"/><g stroke="#794c2d" stroke-width="8" stroke-linecap="round" opacity=".85"><path d="M510 180 l-28 78"/><path d="M550 178 l-20 80"/><path d="M475 210 h95"/></g><circle cx="220" cy="220" r="30" fill="#ffffff" opacity=".5"/><path d="M145 245 q45-45 90 0" fill="none" stroke="#4b2e1e" stroke-width="10" opacity=".65"/><rect y="220" width="720" height="260" fill="url(#b)"/><text class="top" x="34" y="60">今日同心日历</text><rect x="500" y="26" width="186" height="44" rx="22" fill="rgba(255,255,255,.92)"/><text class="date" x="593" y="56" text-anchor="middle">12月13日参考</text><line x1="36" y1="272" x2="144" y2="272" stroke="rgba(255,255,255,.75)" stroke-width="2"/><rect x="38" y="286" width="112" height="38" rx="19" fill="rgba(255,221,100,.9)"/><text class="tag" x="94" y="312" text-anchor="middle">蒙古族</text><text class="title" x="36" y="392">那达慕</text><text class="desc" x="39" y="462">赛马、搏克、射箭中的草原节庆。</text></svg>