<svg xmlns="http://www.w3.org/2000/svg" width="720" height="480" viewBox="0 0 720 480"><defs><linearGradient id="g" x1="0" y1="0" x2="1" y2="1"><stop offset="0" stop-color="#ecfdf5"/><stop offset=".55" stop-color="#c7d2fe"/><stop offset="1" stop-color="#334155"/></linearGradient><linearGradient id="b" x1="0" y1="0" x2="0" y2="1"><stop offset="0" stop-color="#000" stop-opacity="0"/><stop offset="1" stop-color="#000" stop-opacity=".82"/></linearGradient><style>text{font-family:'Microsoft YaHei','Noto Sans CJK SC',Arial,sans-serif}.top{font-size:30px;font-weight:800;fill:white}.date{font-size:24px;font-weight:800;fill:#263044}.tag{font-size:18px;font-weight:800;fill:#3a3012}.title{font-size:58px;font-weight:900;fill:white;paint-order:stroke;stroke:#263044;stroke-width:5px}.desc{font-size:20px;fill:white;paint-order:stroke;stroke:#263044;stroke-width:3px}</style></defs><rect width="720" height="480" fill="url(#g)"/><rect x="125" y="118" width="210" height="145" rx="14" fill="#fff" opacity=".55"/><path d="M155 118 v-28 M305 118 v-28" stroke="#64748b" stroke-width="10" stroke-linecap="round"/><path d="M440 110 C545 95 620 145 655 240" fill="none" stroke="#ffffff" stroke-width="26" opacity=".35"/><path d="M0 320 C160 255 255 350 390 305 S590 285 720 330 V480 H0Z" fill="#0f766e" opacity=".35"/><rect y="220" width="720" height="260" fill="url(#b)"/><text class="top" x="34" y="60">今日同心日历</text><rect x="500" y="26" width="186" height="44" rx="22" fill="rgba(255,255,255,.92)"/><text class="date" x="593" y="56" text-anchor="middle">暂无明确记录</text><line x1="36" y1="272" x2="144" y2="272" stroke="rgba(255,255,255,.75)" stroke-width="2"/><rect x="38" y="286" width="112" height="38" rx="19" fill="rgba(255,221,100,.9)"/><text class="tag" x="94" y="312" text-anchor="middle">继续探索</text><text class="title" x="36" y="392">同心日历</text><text class="desc" x="39" y="462">可查看泼水节、三月三、火把节等已录主题。</text></svg>