<svg xmlns="http://www.w3.org/2000/svg" width="720" height="480" viewBox="0 0 720 480"><defs><linearGradient id="g" x1="0" y1="0" x2="1" y2="1"><stop offset="0" stop-color="#fff1f2"/><stop offset=".55" stop-color="#7f1d1d"/><stop offset="1" stop-color="#1f2937"/></linearGradient><linearGradient id="b" x1="0" y1="0" x2="0" y2="1"><stop offset="0" stop-color="#000" stop-opacity="0"/><stop offset="1" stop-color="#000" stop-opacity=".82"/></linearGradient><style>text{font-family:'Microsoft YaHei','Noto Sans CJK SC',Arial,sans-serif}.top{font-size:30px;font-weight:800;fill:white}.date{font-size:24px;font-weight:800;fill:#263044}.tag{font-size:18px;font-weight:800;fill:#3a3012}.title{font-size:58px;font-weight:900;fill:white;paint-order:stroke;stroke:#1f2937;stroke-width:5px}.desc{font-size:20px;fill:white;paint-order:stroke;stroke:#1f2937;stroke-width:3px}</style></defs><rect width="720" height="480" fill="url(#g)"/><path d="M0 275 C120 215 250 310 380 255 S610 230 720 288 V480 H0Z" fill="#4b1f2a" opacity=".48"/><g fill="none" stroke="#fde68a" stroke-width="11" stroke-linecap="round" opacity=".85"><path d="M135 210 C190 150 260 150 315 210"/><path d="M425 215 C480 155 550 155 605 215"/><path d="M210 130 v105"/><path d="M520 130 v105"/></g><circle cx="365" cy="155" r="34" fill="#fff7ed" opacity=".45"/><rect y="220" width="720" height="260" fill="url(#b)"/><text class="top" x="34" y="60">今日同心日历</text><rect x="500" y="26" width="186" height="44" rx="22" fill="rgba(255,255,255,.92)"/><text class="date" x="593" y="56" text-anchor="middle">农历十月十五</text><line x1="36" y1="272" x2="144" y2="272" stroke="rgba(255,255,255,.75)" stroke-width="2"/><rect x="38" y="286" width="112" height="38" rx="19" fill="rgba(255,221,100,.9)"/><text class="tag" x="94" y="312" text-anchor="middle">瑶族</text><text class="title" x="36" y="392">盘王节</text><text class="desc" x="39" y="462">歌舞与迁徙记忆中的文化传承。</text></svg>