<svg xmlns="http://www.w3.org/2000/svg" width="720" height="480" viewBox="0 0 720 480"><defs><linearGradient id="g" x1="0" y1="0" x2="1" y2="1"><stop offset="0" stop-color="#e7fff8"/><stop offset=".5" stop-color="#35a9c9"/><stop offset="1" stop-color="#12395f"/></linearGradient><linearGradient id="b" x1="0" y1="0" x2="0" y2="1"><stop offset="0" stop-color="#000" stop-opacity="0"/><stop offset="1" stop-color="#000" stop-opacity=".82"/></linearGradient><style>text{font-family:'Microsoft YaHei','Noto Sans CJK SC',Arial,sans-serif}.top{font-size:30px;font-weight:800;fill:white}.date{font-size:24px;font-weight:800;fill:#263044}.tag{font-size:18px;font-weight:800;fill:#3a3012}.title{font-size:58px;font-weight:900;fill:white;paint-order:stroke;stroke:#18304a;stroke-width:5px}.desc{font-size:20px;fill:white;paint-order:stroke;stroke:#18304a;stroke-width:3px}</style></defs><rect width="720" height="480" fill="url(#g)"/><path d="M0 260 C110 220 180 300 285 250 S520 210 720 265 V480 H0Z" fill="#d9fff2" opacity=".42"/><g fill="none" stroke="#e8ffff" stroke-width="9" opacity=".55"><path d="M80 160 C130 110 190 110 235 155"/><path d="M430 130 C500 70 590 95 645 150"/><path d="M260 205 C315 160 390 165 445 218"/></g><circle cx="170" cy="205" r="48" fill="#f9d36c" opacity=".55"/><path d="M80 330 C210 260 360 360 510 295 C595 258 665 285 720 320 V480 H0Z" fill="#0d6a66" opacity=".5"/><rect y="220" width="720" height="260" fill="url(#b)"/><text class="top" x="34" y="60">今日同心日历</text><rect x="500" y="26" width="186" height="44" rx="22" fill="rgba(255,255,255,.92)"/><text class="date" x="593" y="56" text-anchor="middle">4月13日</text><line x1="36" y1="272" x2="144" y2="272" stroke="rgba(255,255,255,.75)" stroke-width="2"/><rect x="38" y="286" width="150" height="38" rx="19" fill="rgba(255,221,100,.9)"/><text class="tag" x="113" y="312" text-anchor="middle">傣族 / 德昂族</text><text class="title" x="36" y="392">泼水节</text><text class="desc" x="39" y="462">以清水送祝福，在欢聚中迎接新年更新。</text></svg>