<svg xmlns="http://www.w3.org/2000/svg" width="720" height="480" viewBox="0 0 720 480"><defs><linearGradient id="g" x1="0" y1="0" x2="1" y2="1"><stop offset="0" stop-color="#d9f3ff"/><stop offset=".55" stop-color="#5a91b8"/><stop offset="1" stop-color="#17243a"/></linearGradient><linearGradient id="b" x1="0" y1="0" x2="0" y2="1"><stop offset="0" stop-color="#000" stop-opacity="0"/><stop offset="1" stop-color="#000" stop-opacity=".82"/></linearGradient><style>text{font-family:'Microsoft YaHei','Noto Sans CJK SC',Arial,sans-serif}.top{font-size:30px;font-weight:800;fill:white}.date{font-size:24px;font-weight:800;fill:#263044}.tag{font-size:18px;font-weight:800;fill:#3a3012}.title{font-size:58px;font-weight:900;fill:white;paint-order:stroke;stroke:#1b2336;stroke-width:5px}.desc{font-size:20px;fill:white;paint-order:stroke;stroke:#1b2336;stroke-width:3px}</style></defs><rect width="720" height="480" fill="url(#g)"/><path d="M0 250 C120 190 200 280 330 225 S560 195 720 245 V480 H0Z" fill="#eaf5ec" opacity=".72"/><path d="M0 315 C130 260 250 355 380 300 S600 285 720 330 V480 H0Z" fill="#1f6f63" opacity=".45"/><path d="M390 190 h220 l-28 95 h-250z" fill="#f9f1df" opacity=".78"/><path d="M430 175 l65-48 76 48z" fill="#7a4d2b" opacity=".7"/><circle cx="122" cy="180" r="28" fill="#ffffff" opacity=".32"/><rect y="220" width="720" height="260" fill="url(#b)"/><text class="top" x="34" y="60">今日同心日历</text><rect x="500" y="26" width="186" height="44" rx="22" fill="rgba(255,255,255,.92)"/><text class="date" x="593" y="56" text-anchor="middle">5月1日</text><line x1="36" y1="272" x2="144" y2="272" stroke="rgba(255,255,255,.75)" stroke-width="2"/><rect x="38" y="286" width="112" height="38" rx="19" fill="rgba(255,221,100,.9)"/><text class="tag" x="94" y="312" text-anchor="middle">白族</text><text class="title" x="36" y="392">白族三月街</text><text class="desc" x="39" y="462">赶街、赛马、扎染与三道茶里的交流现场。</text></svg>