<svg xmlns="http://www.w3.org/2000/svg" width="720" height="480" viewBox="0 0 720 480"><defs><linearGradient id="g" x1="0" y1="0" x2="1" y2="1"><stop offset="0" stop-color="#f4ffe8"/><stop offset=".5" stop-color="#74b87b"/><stop offset="1" stop-color="#2e3b5f"/></linearGradient><linearGradient id="b" x1="0" y1="0" x2="0" y2="1"><stop offset="0" stop-color="#000" stop-opacity="0"/><stop offset="1" stop-color="#000" stop-opacity=".82"/></linearGradient><style>text{font-family:'Microsoft YaHei','Noto Sans CJK SC',Arial,sans-serif}.top{font-size:30px;font-weight:800;fill:white}.date{font-size:24px;font-weight:800;fill:#263044}.tag{font-size:18px;font-weight:800;fill:#3a3012}.title{font-size:58px;font-weight:900;fill:white;paint-order:stroke;stroke:#263044;stroke-width:5px}.desc{font-size:20px;fill:white;paint-order:stroke;stroke:#263044;stroke-width:3px}</style></defs><rect width="720" height="480" fill="url(#g)"/><path d="M0 260 C100 185 185 250 275 205 S485 170 720 240 V480 H0Z" fill="#d8f5d2" opacity=".55"/><path d="M40 300 C150 235 270 350 390 285 S620 255 720 320 V480 H0Z" fill="#1f7a65" opacity=".45"/><g stroke="#fff" stroke-width="5" fill="none" opacity=".65"><path d="M115 165 C145 130 190 130 220 165"/><path d="M470 185 C510 145 570 150 610 190"/></g><circle cx="335" cy="145" r="36" fill="#ffdf73" opacity=".72"/><rect y="220" width="720" height="260" fill="url(#b)"/><text class="top" x="34" y="60">今日同心日历</text><rect x="500" y="26" width="186" height="44" rx="22" fill="rgba(255,255,255,.92)"/><text class="date" x="593" y="56" text-anchor="middle">农历三月三</text><line x1="36" y1="272" x2="144" y2="272" stroke="rgba(255,255,255,.75)" stroke-width="2"/><rect x="38" y="286" width="150" height="38" rx="19" fill="rgba(255,221,100,.9)"/><text class="tag" x="113" y="312" text-anchor="middle">壮族 / 水族</text><text class="title" x="36" y="392">三月三</text><text class="desc" x="39" y="462">以歌会友，在歌圩中相遇相知。</text></svg>