<svg xmlns="http://www.w3.org/2000/svg" width="720" height="480" viewBox="0 0 720 480"><defs><linearGradient id="g" x1="0" y1="0" x2="1" y2="1"><stop offset="0" stop-color="#e0f2fe"/><stop offset=".5" stop-color="#4f8fc7"/><stop offset="1" stop-color="#273469"/></linearGradient><linearGradient id="b" x1="0" y1="0" x2="0" y2="1"><stop offset="0" stop-color="#000" stop-opacity="0"/><stop offset="1" stop-color="#000" stop-opacity=".82"/></linearGradient><style>text{font-family:'Microsoft YaHei','Noto Sans CJK SC',Arial,sans-serif}.top{font-size:30px;font-weight:800;fill:white}.date{font-size:24px;font-weight:800;fill:#263044}.tag{font-size:18px;font-weight:800;fill:#3a3012}.title{font-size:58px;font-weight:900;fill:white;paint-order:stroke;stroke:#1e2b55;stroke-width:5px}.desc{font-size:20px;fill:white;paint-order:stroke;stroke:#1e2b55;stroke-width:3px}</style></defs><rect width="720" height="480" fill="url(#g)"/><path d="M0 260 L125 125 L215 230 L340 90 L470 235 L585 130 L720 250 V480 H0Z" fill="#eff6ff" opacity=".86"/><path d="M0 315 C140 260 260 340 390 300 S610 270 720 325 V480 H0Z" fill="#486186" opacity=".5"/><g fill="#ef4444" opacity=".86"><rect x="92" y="160" width="70" height="38" rx="4"/><rect x="170" y="140" width="70" height="38" rx="4"/><rect x="248" y="158" width="70" height="38" rx="4"/></g><rect y="220" width="720" height="260" fill="url(#b)"/><text class="top" x="34" y="60">今日同心日历</text><rect x="500" y="26" width="186" height="44" rx="22" fill="rgba(255,255,255,.92)"/><text class="date" x="593" y="56" text-anchor="middle">藏历正月初一</text><line x1="36" y1="272" x2="144" y2="272" stroke="rgba(255,255,255,.75)" stroke-width="2"/><rect x="38" y="286" width="112" height="38" rx="19" fill="rgba(255,221,100,.9)"/><text class="tag" x="94" y="312" text-anchor="middle">藏族</text><text class="title" x="36" y="392">藏历新年</text><text class="desc" x="39" y="462">新年祝福从雪域走向校园。</text></svg>