<svg xmlns="http://www.w3.org/2000/svg" width="720" height="480" viewBox="0 0 720 480"><defs><linearGradient id="g" x1="0" y1="0" x2="1" y2="1"><stop offset="0" stop-color="#23395d"/><stop offset=".55" stop-color="#23324a"/><stop offset="1" stop-color="#0f172a"/></linearGradient><linearGradient id="b" x1="0" y1="0" x2="0" y2="1"><stop offset="0" stop-color="#000" stop-opacity="0"/><stop offset="1" stop-color="#000" stop-opacity=".82"/></linearGradient><style>text{font-family:'Microsoft YaHei','Noto Sans CJK SC',Arial,sans-serif}.top{font-size:30px;font-weight:800;fill:white}.date{font-size:24px;font-weight:800;fill:#263044}.tag{font-size:18px;font-weight:800;fill:#3a3012}.title{font-size:58px;font-weight:900;fill:white;paint-order:stroke;stroke:#0f172a;stroke-width:5px}.desc{font-size:20px;fill:white;paint-order:stroke;stroke:#0f172a;stroke-width:3px}</style></defs><rect width="720" height="480" fill="url(#g)"/><circle cx="555" cy="135" r="60" fill="#fff3bf"/><circle cx="533" cy="118" r="60" fill="#23324a" opacity=".22"/><g fill="#f7d36d" opacity=".9"><circle cx="520" cy="285" r="34"/><circle cx="588" cy="298" r="34"/><circle cx="655" cy="286" r="34"/></g><path d="M0 315 C120 260 250 335 390 295 S610 265 720 320 V480 H0Z" fill="#415a45" opacity=".48"/><rect y="220" width="720" height="260" fill="url(#b)"/><text class="top" x="34" y="60">今日同心日历</text><rect x="500" y="26" width="186" height="44" rx="22" fill="rgba(255,255,255,.92)"/><text class="date" x="593" y="56" text-anchor="middle">农历八月十五</text><line x1="36" y1="272" x2="144" y2="272" stroke="rgba(255,255,255,.75)" stroke-width="2"/><rect x="38" y="286" width="150" height="38" rx="19" fill="rgba(255,221,100,.9)"/><text class="tag" x="113" y="312" text-anchor="middle">共同文化主题</text><text class="title" x="36" y="392">中秋</text><text class="desc" x="39" y="462">圆月、桂花与团圆里的共同情感。</text></svg>