<svg xmlns="http://www.w3.org/2000/svg" width="1080" height="720" viewBox="0 0 1080 720">
  <rect width="1080" height="720" fill="#ffeede"/>
  <rect x="42" y="42" width="996" height="636" rx="34" fill="#fff" stroke="#e86e43" stroke-width="3"/>
  <path d="M76 42h928a34 34 0 0 1 34 34v74H42V76a34 34 0 0 1 34-34z" fill="#e86e43"/>
  <text x="80" y="112" font-family="Microsoft YaHei, SimHei, sans-serif" font-size="40" fill="#fff">今日同心日历</text>
  <text x="650" y="112" font-family="Microsoft YaHei, SimHei, sans-serif" font-size="30" fill="#fff">农历六月二十四｜2026年8月6日</text>
  <text x="80" y="265" font-family="Microsoft YaHei, SimHei, sans-serif" font-size="90" font-weight="700" fill="#692a14">火把节</text>
  <text x="84" y="338" font-family="Microsoft YaHei, SimHei, sans-serif" font-size="36" fill="#e86e43">彝族｜火文化 丰收祈愿 歌舞体育</text>
  <rect x="80" y="378" width="920" height="112" rx="20" fill="#ffeede" opacity=".75" stroke="#e8e8e8"/>
  <text x="112" y="425" font-family="Microsoft YaHei, SimHei, sans-serif" font-size="32" fill="#692a14">节日速览</text>
  <text font-family="Microsoft YaHei, SimHei, sans-serif" font-size="34" fill="#222"><tspan x="270" y="425">点燃火把、围火起舞，寄托丰收与团圆愿望。</tspan></text>
  <rect x="80" y="520" width="920" height="82" rx="20" fill="#fafafa" stroke="#e8e8e8"/>
  <text x="112" y="571" font-family="Microsoft YaHei, SimHei, sans-serif" font-size="30" fill="#692a14">共同体连接</text>
  <text font-family="Microsoft YaHei, SimHei, sans-serif" font-size="31" fill="#333"><tspan x="320" y="569">火把节连接西南多民族共享节庆经验。</tspan></text>
  <text x="84" y="640" font-family="Microsoft YaHei, SimHei, sans-serif" font-size="30" fill="#555">配图方向：火把、节日盛装、歌舞圆圈、地方美食</text>
  <text x="84" y="676" font-family="Microsoft YaHei, SimHei, sans-serif" font-size="28" fill="#e86e43">回复“详细 / 短视频 / 公众号”继续生成</text>
  <text x="860" y="666" font-family="Microsoft YaHei, SimHei, sans-serif" font-size="24" fill="#888">中南民族大学</text>
</svg>